<?xml version="1.0" encoding="UTF-8" standalone="no"?>
<!-- Created with Inkscape (http://www.inkscape.org/) -->

<svg
   width="1280"
   height="316.44189"
   viewBox="0 0 338.66668 83.72525"
   version="1.1"
   id="svg1"
   inkscape:version="1.4 (86a8ad7, 2024-10-11)"
   xml:space="preserve"
   sodipodi:docname="kesh-logo.svg"
   inkscape:export-batch-path="..\..\Desktop\kesh-logo\full-logo"
   inkscape:export-batch-name=""
   xmlns:inkscape="http://www.inkscape.org/namespaces/inkscape"
   xmlns:sodipodi="http://sodipodi.sourceforge.net/DTD/sodipodi-0.dtd"
   xmlns="http://www.w3.org/2000/svg"
   xmlns:svg="http://www.w3.org/2000/svg"><sodipodi:namedview
     id="namedview1"
     pagecolor="#acacac"
     bordercolor="#000000"
     borderopacity="0.08235294"
     inkscape:showpageshadow="2"
     inkscape:pageopacity="0.0"
     inkscape:pagecheckerboard="0"
     inkscape:deskcolor="#c2c2c2"
     inkscape:document-units="px"
     showgrid="true"
     inkscape:lockguides="false"
     showguides="true"
     inkscape:zoom="0.083622968"
     inkscape:cx="3414.1338"
     inkscape:cy="2624.8769"
     inkscape:window-width="1920"
     inkscape:window-height="1017"
     inkscape:window-x="1358"
     inkscape:window-y="-8"
     inkscape:window-maximized="1"
     inkscape:current-layer="layer1"><sodipodi:guide
       position="-51.942692,1590.0251"
       orientation="1,0"
       id="guide5"
       inkscape:locked="false" /></sodipodi:namedview><defs
     id="defs1" /><g
     inkscape:label="Layer 1"
     inkscape:groupmode="layer"
     id="layer1"
     transform="translate(-56.137607,-226.02936)"><g
       id="alternate-main"
       transform="matrix(2.8479502,0,0,2.8479502,-277.86946,186.16345)"
       style="fill:#f5c45e;fill-opacity:1"><g
         id="g52"
         transform="matrix(0.82508235,0,0,0.82508235,84.496468,-43.237115)"
         style="fill:#f5c45e;fill-opacity:1"><path
           id="path50"
           style="opacity:1;fill:#f5c45e;fill-opacity:1;stroke:none;stroke-width:0.861357;stroke-linecap:round;stroke-dasharray:none"
           d="m 65.929825,78.730077 -8.123018,8.123018 8.533846,8.533846 a 10.031946,10.031946 0 0 0 4.261755,-8.180379 10.031946,10.031946 0 0 0 -4.672583,-8.476485 z m 0.01292,1.794722 c 0.947269,0.715525 1.724903,1.649256 2.285649,2.693893 1.883126,3.341805 1.013759,7.897861 -1.928565,10.342521 L 59.60308,86.864464 Z" /><path
           style="fill:#f5c45e;fill-opacity:1;stroke-linecap:round"
           d="m 49.203128,71.450111 c -5.629093,2.996663 -9.469706,8.922743 -9.469706,15.735474 0,9.827954 7.988529,17.814415 17.816483,17.814415 3.413681,0 6.604078,-0.96539 9.316227,-2.63498 l -1.432471,-1.43247 c -2.321315,1.33198 -5.010998,2.09703 -7.883756,2.09703 -8.762514,0 -15.843477,-7.081481 -15.843477,-15.843995 0,-5.696723 2.994581,-10.681333 7.4967,-13.473596 v -0.332796 z"
           id="path51" /><path
           id="path52"
           style="fill:#f5c45e;fill-opacity:1;stroke-linecap:round"
           d="m 57.549905,69.369102 c -2.337678,-10e-7 -4.568837,0.456776 -6.615617,1.277958 v 0.105936 2.030884 3.043225 1.731161 3.978568 2.447913 5.180045 2.447913 l 1.731161,-1.731161 2.08256,-2.08256 12.170316,12.1698 0.0062,0.0062 1.393197,1.393196 c 4.279924,-3.255779 7.048666,-8.398971 7.048665,-14.182596 0,-9.827953 -7.988529,-17.816483 -17.816483,-17.816483 z m 0,1.970939 c 8.762514,0 15.845544,7.08303 15.845544,15.845544 0,4.628098 -1.97863,8.783755 -5.13457,11.67784 L 55.972223,86.574769 64.988727,77.558266 h -2.447912 l -7.792806,7.792289 -1.223698,1.224214 -0.858862,0.858863 v -1.717725 -2.447912 -5.709729 -1.731161 -3.714502 c 1.538219,-0.49833 3.178197,-0.772563 4.884456,-0.772562 z" /></g><path
         d="m 154.04394,27.704097 -1.44913,1.506115 v 4.005452 h -1.5631 V 21.362132 h 1.5631 v 5.861637 l 5.26733,-5.861637 h 1.88875 l -4.66488,5.234767 5.03124,6.618765 h -1.87247 z m 10.63822,5.67439 q -1.79106,0 -2.91454,-1.172327 -1.12348,-1.180469 -1.12348,-3.15063 v -0.276799 q 0,-1.310727 0.49661,-2.336514 0.50476,-1.033927 1.40028,-1.61195 0.90367,-0.586163 1.95388,-0.586163 1.71779,0 2.6703,1.131621 0.95252,1.131622 0.95252,3.240182 v 0.62687 h -5.96747 q 0.0326,1.302586 0.75713,2.108561 0.7327,0.797834 1.85618,0.797834 0.79783,0 1.35143,-0.325647 0.5536,-0.325646 0.9688,-0.862963 l 0.91995,0.716422 q -1.1072,1.701503 -3.32159,1.701503 z m -0.18725,-7.896927 q -0.91181,0 -1.53054,0.667575 -0.61872,0.659435 -0.76527,1.856185 h 4.41251 v -0.113976 q -0.0651,-1.147904 -0.61872,-1.774773 -0.5536,-0.635011 -1.49798,-0.635011 z m 10.48354,5.39759 q 0,-0.610587 -0.46405,-0.944374 -0.4559,-0.341929 -1.60381,-0.586164 -1.13976,-0.244235 -1.81547,-0.586164 -0.66758,-0.341928 -0.99323,-0.814116 -0.3175,-0.472187 -0.3175,-1.12348 0,-1.082775 0.91181,-1.831762 0.91995,-0.748986 2.34465,-0.748986 1.49798,0 2.42607,0.77341 0.93623,0.77341 0.93623,1.978302 h -1.51425 q 0,-0.618728 -0.52918,-1.066492 -0.52103,-0.447764 -1.31887,-0.447764 -0.82225,0 -1.2863,0.358211 -0.46405,0.358211 -0.46405,0.936234 0,0.545458 0.43148,0.822257 0.43149,0.2768 1.55497,0.529176 1.13162,0.252376 1.83176,0.602446 0.70014,0.35007 1.03393,0.846681 0.34192,0.488469 0.34192,1.19675 0,1.180469 -0.94437,1.896891 -0.94438,0.708281 -2.45049,0.708281 -1.05835,0 -1.87247,-0.374493 -0.81411,-0.374494 -1.27816,-1.042069 -0.4559,-0.675716 -0.4559,-1.457268 h 1.50611 q 0.0407,0.757128 0.60245,1.204892 0.56988,0.439623 1.49797,0.439623 0.85482,0 1.36772,-0.341929 0.52103,-0.35007 0.52103,-0.928093 z m 4.96383,-5.405731 q 1.00136,-1.229315 2.60517,-1.229315 2.79242,0 2.81684,3.150629 v 5.820931 h -1.50611 v -5.829072 q -0.008,-0.952516 -0.43963,-1.408421 -0.42334,-0.455905 -1.32701,-0.455905 -0.7327,0 -1.2863,0.390776 -0.5536,0.390775 -0.86296,1.025786 v 6.276836 h -1.50612 V 20.710839 h 1.50612 z m 12.01993,7.742245 V 21.362132 h 3.34602 q 1.54682,0 2.73543,0.683858 1.18861,0.683857 1.83176,1.945738 0.6513,1.26188 0.65944,2.898253 v 0.757128 q 0,1.67708 -0.6513,2.93896 -0.64315,1.26188 -1.84804,1.937596 -1.19675,0.675717 -2.79242,0.691999 z m 1.56311,-10.567228 v 9.289065 h 1.64451 q 1.80734,0 2.8087,-1.12348 1.00951,-1.12348 1.00951,-3.199476 v -0.691999 q 0,-2.019008 -0.95252,-3.134348 -0.94437,-1.12348 -2.68658,-1.139762 z m 10.76033,10.567228 h -1.50611 v -8.808737 h 1.50611 z m -1.62823,-11.145251 q 0,-0.366352 0.21981,-0.618728 0.22796,-0.252376 0.66758,-0.252376 0.43962,0 0.66757,0.252376 0.22796,0.252376 0.22796,0.618728 0,0.366353 -0.22796,0.610587 -0.22795,0.244235 -0.66757,0.244235 -0.43962,0 -0.66758,-0.244235 -0.21981,-0.244234 -0.21981,-0.610587 z m 3.66939,6.667612 q 0,-2.059714 0.95251,-3.272747 0.95252,-1.221174 2.52376,-1.221174 1.61195,0 2.51562,1.139762 l 0.0733,-0.976939 h 1.37586 v 8.597067 q 0,1.709644 -1.01765,2.694724 -1.0095,0.985081 -2.71915,0.985081 -0.95251,0 -1.86432,-0.407058 -0.91181,-0.407058 -1.39214,-1.115339 l 0.78155,-0.903669 q 0.9688,1.19675 2.36908,1.19675 1.09906,0 1.70964,-0.618728 0.61873,-0.618728 0.61873,-1.742209 v -0.757128 q -0.90367,1.042069 -2.46677,1.042069 -1.54682,0 -2.50748,-1.245598 -0.95251,-1.245597 -0.95251,-3.394864 z m 1.51425,0.170964 q 0,1.489833 0.61059,2.344655 0.61059,0.846681 1.70964,0.846681 1.42471,0 2.09228,-1.294445 v -4.021734 q -0.692,-1.26188 -2.076,-1.26188 -1.09905,0 -1.71778,0.854822 -0.61873,0.854822 -0.61873,2.531901 z m 9.82411,4.306675 h -1.50612 v -8.808737 h 1.50612 z m -1.62824,-11.145251 q 0,-0.366352 0.21982,-0.618728 0.22795,-0.252376 0.66757,-0.252376 0.43962,0 0.66758,0.252376 0.22795,0.252376 0.22795,0.618728 0,0.366353 -0.22795,0.610587 -0.22796,0.244235 -0.66758,0.244235 -0.43962,0 -0.66757,-0.244235 -0.21982,-0.244234 -0.21982,-0.610587 z m 6.07103,0.203529 v 2.132985 h 1.64452 v 1.164186 h -1.64452 v 5.46272 q 0,0.529175 0.21981,0.797833 0.21981,0.260518 0.74899,0.260518 0.26052,0 0.71642,-0.09769 v 1.221174 q -0.5943,0.162823 -1.15604,0.162823 -1.00951,0 -1.5224,-0.610587 -0.51289,-0.610587 -0.51289,-1.734067 v -5.46272 h -1.60381 v -1.164186 h 1.60381 v -2.132985 z m 8.83088,10.941722 q -0.13026,-0.260517 -0.21167,-0.928093 -1.05021,1.090916 -2.50748,1.090916 -1.30259,0 -2.14113,-0.732704 -0.83039,-0.740846 -0.83039,-1.872468 0,-1.375856 1.04206,-2.132984 1.05021,-0.765269 2.9471,-0.765269 h 1.46541 v -0.691999 q 0,-0.789693 -0.47218,-1.253739 -0.47219,-0.472187 -1.39214,-0.472187 -0.80598,0 -1.35144,0.407058 -0.54545,0.407058 -0.54545,0.98508 h -1.51426 q 0,-0.659434 0.46405,-1.270021 0.47218,-0.618728 1.27002,-0.976939 0.80597,-0.358211 1.76663,-0.358211 1.5224,0 2.38536,0.765269 0.86296,0.757128 0.89553,2.092278 v 4.054299 q 0,1.213033 0.30936,1.929455 v 0.130259 z M 228.4395,32.06776 q 0.70828,0 1.34329,-0.366352 0.63501,-0.366352 0.91995,-0.952516 v -1.807338 h -1.18046 q -2.768,0 -2.768,1.620091 0,0.708281 0.47219,1.107198 0.47219,0.398917 1.21303,0.398917 z m 7.75625,1.147904 h -1.50611 V 20.710839 h 1.50611 z"
         id="path53"
         style="font-size:16.6731px;line-height:1.5;font-family:Roboto;-inkscape-font-specification:Roboto;letter-spacing:-0.0104207px;fill:#f5c45e;fill-opacity:1;stroke-width:6.77344;stroke-linecap:round"
         aria-label="Kesh Digital" /></g></g></svg>
