<?xml version="1.0" encoding="UTF-8" standalone="no"?>
<!-- Created with Inkscape (http://www.inkscape.org/) -->

<svg
   width="1280"
   height="1279.9258"
   viewBox="0 0 338.66668 338.64703"
   version="1.1"
   id="svg1"
   inkscape:version="1.4 (86a8ad7, 2024-10-11)"
   xml:space="preserve"
   sodipodi:docname="kesh-logo.svg"
   inkscape:export-batch-path="..\..\Desktop\kesh-logo\logomark"
   inkscape:export-batch-name=""
   xmlns:inkscape="http://www.inkscape.org/namespaces/inkscape"
   xmlns:sodipodi="http://sodipodi.sourceforge.net/DTD/sodipodi-0.dtd"
   xmlns="http://www.w3.org/2000/svg"
   xmlns:svg="http://www.w3.org/2000/svg"><sodipodi:namedview
     id="namedview1"
     pagecolor="#acacac"
     bordercolor="#000000"
     borderopacity="0.08235294"
     inkscape:showpageshadow="2"
     inkscape:pageopacity="0.0"
     inkscape:pagecheckerboard="0"
     inkscape:deskcolor="#c2c2c2"
     inkscape:document-units="px"
     showgrid="true"
     inkscape:lockguides="false"
     showguides="true"
     inkscape:zoom="0.083622968"
     inkscape:cx="3414.1338"
     inkscape:cy="2624.8769"
     inkscape:window-width="1920"
     inkscape:window-height="1017"
     inkscape:window-x="1358"
     inkscape:window-y="-8"
     inkscape:window-maximized="1"
     inkscape:current-layer="layer1"><sodipodi:guide
       position="-518.5553,1384.0467"
       orientation="1,0"
       id="guide5"
       inkscape:locked="false" /></sodipodi:namedview><defs
     id="defs1" /><g
     inkscape:label="Layer 1"
     inkscape:groupmode="layer"
     id="layer1"
     transform="translate(-522.75022,-20.051051)"><g
       id="main-logomark"
       transform="matrix(9.5043077,0,0,9.5043077,145.11155,-639.25423)"
       style="fill:#102e50;fill-opacity:1"><path
         id="path27"
         style="opacity:1;fill:#102e50;fill-opacity:1;stroke:none;stroke-width:0.861357;stroke-linecap:round;stroke-dasharray:none"
         d="m 65.929825,78.730077 -8.123018,8.123018 8.533846,8.533846 a 10.031946,10.031946 0 0 0 4.261755,-8.180379 10.031946,10.031946 0 0 0 -4.672583,-8.476485 z m 0.01292,1.794722 c 0.947269,0.715525 1.724903,1.649256 2.285649,2.693893 1.883126,3.341805 1.013759,7.897861 -1.928565,10.342521 L 59.60308,86.864464 Z" /><path
         style="fill:#102e50;fill-opacity:1;stroke-linecap:round"
         d="m 49.203128,71.450111 c -5.629093,2.996663 -9.469706,8.922743 -9.469706,15.735474 0,9.827954 7.988529,17.814415 17.816483,17.814415 3.413681,0 6.604078,-0.96539 9.316227,-2.63498 l -1.432471,-1.43247 c -2.321315,1.33198 -5.010998,2.09703 -7.883756,2.09703 -8.762514,0 -15.843477,-7.081481 -15.843477,-15.843995 0,-5.696723 2.994581,-10.681333 7.4967,-13.473596 v -0.332796 z"
         id="path28" /><path
         id="path29"
         style="fill:#102e50;fill-opacity:1;stroke-linecap:round"
         d="m 57.549905,69.369102 c -2.337678,-10e-7 -4.568837,0.456776 -6.615617,1.277958 v 0.105936 2.030884 3.043225 1.731161 3.978568 2.447913 5.180045 2.447913 l 1.731161,-1.731161 2.08256,-2.08256 12.170316,12.1698 0.0062,0.0062 1.393197,1.393196 c 4.279924,-3.255779 7.048666,-8.398971 7.048665,-14.182596 0,-9.827953 -7.988529,-17.816483 -17.816483,-17.816483 z m 0,1.970939 c 8.762514,0 15.845544,7.08303 15.845544,15.845544 0,4.628098 -1.97863,8.783755 -5.13457,11.67784 L 55.972223,86.574769 64.988727,77.558266 h -2.447912 l -7.792806,7.792289 -1.223698,1.224214 -0.858862,0.858863 v -1.717725 -2.447912 -5.709729 -1.731161 -3.714502 c 1.538219,-0.49833 3.178197,-0.772563 4.884456,-0.772562 z" /></g></g></svg>
