<?xml version="1.0" encoding="UTF-8" standalone="no"?>
<!-- Created with Inkscape (http://www.inkscape.org/) -->

<svg
   width="1280"
   height="240.07066"
   viewBox="0 0 338.66668 63.518696"
   version="1.1"
   id="svg1"
   inkscape:version="1.4 (86a8ad7, 2024-10-11)"
   xml:space="preserve"
   sodipodi:docname="kesh-logo.svg"
   inkscape:export-batch-path="..\..\Desktop\kesh-logo\wordmark"
   inkscape:export-batch-name=""
   xmlns:inkscape="http://www.inkscape.org/namespaces/inkscape"
   xmlns:sodipodi="http://sodipodi.sourceforge.net/DTD/sodipodi-0.dtd"
   xmlns="http://www.w3.org/2000/svg"
   xmlns:svg="http://www.w3.org/2000/svg"><sodipodi:namedview
     id="namedview1"
     pagecolor="#acacac"
     bordercolor="#000000"
     borderopacity="0.08235294"
     inkscape:showpageshadow="2"
     inkscape:pageopacity="0.0"
     inkscape:pagecheckerboard="0"
     inkscape:deskcolor="#c2c2c2"
     inkscape:document-units="px"
     showgrid="true"
     inkscape:lockguides="false"
     showguides="true"
     inkscape:zoom="0.083622968"
     inkscape:cx="3414.1338"
     inkscape:cy="2624.8769"
     inkscape:window-width="1920"
     inkscape:window-height="1017"
     inkscape:window-x="1358"
     inkscape:window-y="-8"
     inkscape:window-maximized="1"
     inkscape:current-layer="layer1"><sodipodi:guide
       position="-1278.8259,1453.0485"
       orientation="1,0"
       id="guide5"
       inkscape:locked="false" /></sodipodi:namedview><defs
     id="defs1" /><g
     inkscape:label="Layer 1"
     inkscape:groupmode="layer"
     id="layer1"
     transform="translate(-1283.0208,-89.05284)"><g
       id="main-text"
       transform="matrix(2.1877885,0,0,2.1877885,1092.0059,55.239709)"
       style="fill:#102e50;fill-opacity:1"><path
         d="m 92.78477,28.166706 -2.634009,2.737593 v 7.280519 H 87.309583 V 16.639217 h 2.841178 v 10.654418 l 9.574178,-10.654418 h 3.433091 l -8.479141,9.514987 9.145041,12.030614 h -3.40349 z m 19.33658,10.314068 q -3.25551,0 -5.29761,-2.130883 -2.0421,-2.145682 -2.0421,-5.72675 v -0.503125 q 0,-2.382447 0.90267,-4.24697 0.91746,-1.879321 2.54522,-2.929965 1.64256,-1.065442 3.55148,-1.065442 3.12233,0 4.85367,2.056895 1.73135,2.056895 1.73135,5.889526 v 1.13943 h -10.84679 q 0.0592,2.367649 1.37619,3.832631 1.33181,1.450185 3.3739,1.450185 1.45019,0 2.45644,-0.591912 1.00625,-0.591912 1.76094,-1.568567 l 1.67215,1.302206 q -2.0125,3.092741 -6.03751,3.092741 z m -0.34034,-14.353869 q -1.65736,0 -2.78199,1.21342 -1.12463,1.198622 -1.391,3.373899 h 8.02041 v -0.207169 q -0.11838,-2.08649 -1.12463,-3.225921 -1.00625,-1.154229 -2.72279,-1.154229 z m 19.05542,9.810944 q 0,-1.109835 -0.84347,-1.716545 -0.82868,-0.621508 -2.91517,-1.065442 -2.07169,-0.443934 -3.29991,-1.065442 -1.21342,-0.621508 -1.80533,-1.47978 -0.57712,-0.858273 -0.57712,-2.042097 0,-1.968108 1.65736,-3.329506 1.67215,-1.361398 4.26176,-1.361398 2.7228,0 4.40975,1.405792 1.70175,1.405791 1.70175,3.595866 h -2.75239 q 0,-1.124633 -0.96186,-1.938512 -0.94706,-0.81388 -2.39725,-0.81388 -1.49457,0 -2.33805,0.651104 -0.84347,0.651103 -0.84347,1.701747 0,0.991453 0.78428,1.494578 0.78428,0.503125 2.82638,0.961857 2.0569,0.458732 3.32951,1.095038 1.27261,0.636305 1.87932,1.538971 0.62151,0.887869 0.62151,2.175277 0,2.145682 -1.71655,3.447888 -1.71655,1.287409 -4.45414,1.287409 -1.92371,0 -3.40349,-0.680699 -1.47978,-0.680699 -2.32326,-1.894118 -0.82868,-1.228218 -0.82868,-2.648807 h 2.7376 q 0.074,1.376196 1.09504,2.190075 1.03584,0.799081 2.72279,0.799081 1.55377,0 2.48603,-0.621508 0.94706,-0.636305 0.94706,-1.686949 z m 9.02252,-9.825741 q 1.82013,-2.234469 4.7353,-2.234469 5.07564,0 5.12004,5.72675 v 10.580429 h -2.7376 V 27.589591 q -0.0148,-1.731343 -0.79908,-2.56002 -0.76948,-0.828677 -2.41204,-0.828677 -1.3318,0 -2.33805,0.710295 -1.00625,0.710295 -1.56857,1.864523 v 11.409106 h -2.73759 V 15.455393 h 2.73759 z m 21.84807,14.07271 V 16.639217 h 6.0819 q 2.81158,0 4.97206,1.243016 2.16048,1.243015 3.32951,3.536674 1.18382,2.29366 1.19862,5.268018 v 1.376196 q 0,3.048347 -1.18383,5.342007 -1.16902,2.293659 -3.3591,3.521877 -2.17528,1.228218 -5.07564,1.257813 z M 164.5482,18.97727 v 16.884293 h 2.98916 q 3.28511,0 5.10524,-2.042097 1.83492,-2.042096 1.83492,-5.815536 v -1.257813 q 0,-3.669856 -1.73134,-5.697155 -1.71654,-2.042096 -4.88327,-2.071692 z m 19.55855,19.207548 h -2.73759 V 22.173595 h 2.73759 z m -2.95956,-20.258192 q 0,-0.665901 0.39954,-1.124633 0.41434,-0.458732 1.21342,-0.458732 0.79908,0 1.21342,0.458732 0.41434,0.458732 0.41434,1.124633 0,0.665901 -0.41434,1.109835 -0.41434,0.443934 -1.21342,0.443934 -0.79908,0 -1.21342,-0.443934 -0.39954,-0.443934 -0.39954,-1.109835 z m 6.66966,12.119401 q 0,-3.743845 1.73135,-5.948717 1.73134,-2.219671 4.58731,-2.219671 2.92997,0 4.57253,2.071693 l 0.13318,-1.775737 h 2.50082 v 15.62648 q 0,3.107539 -1.84972,4.898073 -1.83493,1.790534 -4.94247,1.790534 -1.73134,0 -3.38869,-0.73989 -1.65736,-0.73989 -2.53043,-2.027299 l 1.42059,-1.642556 q 1.76094,2.175277 4.30616,2.175277 1.9977,0 3.10754,-1.124633 1.12463,-1.124633 1.12463,-3.16673 v -1.376195 q -1.64255,1.894118 -4.48373,1.894118 -2.81158,0 -4.55772,-2.264064 -1.73135,-2.264063 -1.73135,-6.170683 z m 2.75239,0.310753 q 0,2.707998 1.10984,4.261768 1.10983,1.538971 3.10754,1.538971 2.58961,0 3.80303,-2.35285 v -7.310115 q -1.25781,-2.29366 -3.77344,-2.29366 -1.9977,0 -3.12233,1.55377 -1.12464,1.553769 -1.12464,4.602116 z m 17.85681,7.828038 h -2.7376 V 22.173595 h 2.7376 z m -2.95956,-20.258192 q 0,-0.665901 0.39954,-1.124633 0.41434,-0.458732 1.21342,-0.458732 0.79908,0 1.21342,0.458732 0.41434,0.458732 0.41434,1.124633 0,0.665901 -0.41434,1.109835 -0.41434,0.443934 -1.21342,0.443934 -0.79908,0 -1.21342,-0.443934 -0.39954,-0.443934 -0.39954,-1.109835 z m 11.03502,0.369945 v 3.877024 h 2.98916 v 2.116086 h -2.98916 v 9.929326 q 0,0.961857 0.39954,1.450185 0.39954,0.473529 1.3614,0.473529 0.47353,0 1.3022,-0.177573 v 2.21967 q -1.08023,0.295956 -2.10128,0.295956 -1.83493,0 -2.76719,-1.109835 -0.93226,-1.109835 -0.93226,-3.151932 v -9.929326 h -2.91517 v -2.116086 h 2.91517 v -3.877024 z m 16.05147,19.888247 q -0.23677,-0.473529 -0.38475,-1.686949 -1.90891,1.982905 -4.55772,1.982905 -2.36765,0 -3.89182,-1.331802 -1.50938,-1.3466 -1.50938,-3.403495 0,-2.500828 1.89412,-3.877024 1.90892,-1.390994 5.35681,-1.390994 h 2.6636 v -1.257813 q 0,-1.435387 -0.85827,-2.278861 -0.85827,-0.858273 -2.53043,-0.858273 -1.46498,0 -2.45643,0.73989 -0.99145,0.73989 -0.99145,1.790534 h -2.7524 q 0,-1.198622 0.84348,-2.308457 0.85827,-1.124633 2.30846,-1.775736 1.46498,-0.651104 3.21112,-0.651104 2.76719,0 4.33576,1.390994 1.56856,1.376196 1.62775,3.803035 v 7.369306 q 0,2.204873 0.56232,3.507079 v 0.236765 z m -4.54293,-2.08649 q 1.28741,0 2.44164,-0.665901 1.15423,-0.665901 1.67215,-1.731343 v -3.285112 h -2.14568 q -5.03125,0 -5.03125,2.944762 0,1.287409 0.85827,2.012502 0.85827,0.725092 2.20487,0.725092 z m 14.09817,2.08649 h -2.73759 V 15.455393 h 2.73759 z"
         id="text32"
         style="font-size:30.3059px;line-height:1.5;font-family:Roboto;-inkscape-font-specification:Roboto;letter-spacing:-0.0189412px;stroke-width:12.3118;stroke-linecap:round"
         aria-label="Kesh Digital" /></g></g></svg>
